<svg width="30" height="30" viewBox="0 0 30 30" fill="none" xmlns="http://www.w3.org/2000/svg">
<path d="M24.6426 10.7141C24.6426 16.0499 14.9998 28.9284 14.9998 28.9284C14.9998 28.9284 5.35693 16.0499 5.35693 10.7141C5.35693 8.1567 6.37287 5.704 8.18126 3.89562C9.98965 2.08723 12.4423 1.07129 14.9998 1.07129C17.5572 1.07129 20.0099 2.08723 21.8183 3.89562C23.6267 5.704 24.6426 8.1567 24.6426 10.7141V10.7141Z" stroke="white" stroke-width="2" stroke-linecap="round" stroke-linejoin="round"/>
<path d="M14.9999 13.9286C16.7751 13.9286 18.2142 12.4895 18.2142 10.7143C18.2142 8.93908 16.7751 7.5 14.9999 7.5C13.2247 7.5 11.7856 8.93908 11.7856 10.7143C11.7856 12.4895 13.2247 13.9286 14.9999 13.9286Z" stroke="white" stroke-width="2" stroke-linecap="round" stroke-linejoin="round"/>
</svg>
