<svg width="61" height="61" viewBox="0 0 61 61" fill="none" xmlns="http://www.w3.org/2000/svg">
<path d="M30.1518 41.6141C36.0691 41.6141 40.8661 36.8172 40.8661 30.8998C40.8661 24.9825 36.0691 20.1855 30.1518 20.1855C24.2344 20.1855 19.4375 24.9825 19.4375 30.8998C19.4375 36.8172 24.2344 41.6141 30.1518 41.6141Z" stroke="#151E09" stroke-width="2" stroke-linecap="round" stroke-linejoin="round"/>
<path d="M58.0092 30.9001L47.9806 38.2715L49.8664 50.6144L37.5235 48.7287L30.1521 58.7573L22.7806 48.7287L10.4378 50.6144L12.3235 38.2715L2.29492 30.9001L12.3235 23.5287L10.4378 11.1858L22.7806 13.0715L30.1521 3.04297L37.5235 13.0715L49.8664 11.1858L47.9806 23.5287L58.0092 30.9001Z" stroke="#858666" stroke-width="2" stroke-linecap="round" stroke-linejoin="round"/>
</svg>
