<svg width="31" height="21" viewBox="0 0 31 21" fill="none" xmlns="http://www.w3.org/2000/svg">
<mask id="path-1-inside-1_740_38" fill="white">
<path d="M27.7473 21H2.29102C1.03826 21 0.0185547 19.9982 0.0185547 18.7673V2.08471C0.0185547 0.934929 0.970777 0 2.14106 0H27.8967C29.067 0 30.0186 0.934929 30.0186 2.08471V18.768C30.0192 19.9982 29.0001 21 27.7473 21ZM2.14169 1.22713C1.65995 1.22713 1.26882 1.61142 1.26882 2.0841V18.7673C1.26882 19.3211 1.72743 19.7723 2.29164 19.7723H27.748C28.3116 19.7723 28.7702 19.3217 28.7702 18.7673V2.08471C28.7702 1.61142 28.379 1.22775 27.8979 1.22775L2.14169 1.22713Z"/>
</mask>
<path d="M30.0186 18.768H28.0186V18.769L30.0186 18.768ZM2.14169 1.22713L2.14173 -0.772866H2.14169V1.22713ZM27.8979 1.22775L27.8979 3.22775H27.8979V1.22775ZM27.7473 19H2.29102V23H27.7473V19ZM2.29102 19C2.10936 19 2.01855 18.8604 2.01855 18.7673H-1.98145C-1.98145 21.1359 -0.0328475 23 2.29102 23V19ZM2.01855 18.7673V2.08471H-1.98145V18.7673H2.01855ZM2.01855 2.08471C2.01855 2.07589 2.01993 2.071 2.02205 2.06609C2.02481 2.0597 2.03082 2.04943 2.04233 2.03813C2.06532 2.01555 2.09753 2 2.14106 2V-2C-0.0995535 -2 -1.98145 -0.203571 -1.98145 2.08471H2.01855ZM2.14106 2H27.8967V-2H2.14106V2ZM27.8967 2C27.9401 2 27.972 2.01547 27.9948 2.03784C28.0062 2.04907 28.0122 2.05929 28.015 2.06572C28.0171 2.07068 28.0186 2.0757 28.0186 2.08471H32.0186C32.0186 -0.202812 30.1381 -2 27.8967 -2V2ZM28.0186 2.08471V18.768H32.0186V2.08471H28.0186ZM28.0186 18.769C28.0186 18.8608 27.9289 19 27.7473 19V23C30.0713 23 32.0198 21.1355 32.0186 18.7669L28.0186 18.769ZM2.14169 -0.772866C0.589789 -0.772866 -0.731185 0.472753 -0.731185 2.0841H3.26882C3.26882 2.75008 2.73011 3.22713 2.14169 3.22713V-0.772866ZM-0.731185 2.0841V18.7673H3.26882V2.0841H-0.731185ZM-0.731185 18.7673C-0.731185 20.458 0.655524 21.7723 2.29164 21.7723V17.7723C2.79934 17.7723 3.26882 18.1841 3.26882 18.7673H-0.731185ZM2.29164 21.7723H27.748V17.7723H2.29164V21.7723ZM27.748 21.7723C29.3835 21.7723 30.7702 20.4586 30.7702 18.7673H26.7702C26.7702 18.1847 27.2396 17.7723 27.748 17.7723V21.7723ZM30.7702 18.7673V2.08471H26.7702V18.7673H30.7702ZM30.7702 2.08471C30.7702 0.472753 29.4492 -0.772253 27.8979 -0.772253V3.22775C27.3089 3.22775 26.7702 2.75008 26.7702 2.08471H30.7702ZM27.898 -0.772253L2.14173 -0.772866L2.14164 3.22713L27.8979 3.22775L27.898 -0.772253Z" fill="white" mask="url(#path-1-inside-1_740_38)"/>
<mask id="path-3-inside-2_740_38" fill="white">
<path d="M15.0192 13.265C14.3831 13.265 13.7489 13.0477 13.2422 12.6124L3.10766 3.89971C2.84773 3.67626 2.82149 3.28829 3.0483 3.03353C3.27573 2.77693 3.67062 2.75238 3.92992 2.97521L14.0651 11.6873C14.6093 12.1551 15.4297 12.1551 15.9739 11.6873L26.1084 2.97521C26.3671 2.75238 26.762 2.77693 26.9901 3.03353C27.2169 3.28829 27.1906 3.67626 26.9307 3.89971L16.7962 12.6118C16.2894 13.047 15.654 13.265 15.0192 13.265Z"/>
</mask>
<path d="M13.2422 12.6124L11.9384 14.129L11.9391 14.1296L13.2422 12.6124ZM3.10766 3.89971L4.41148 2.38311L4.41145 2.38309L3.10766 3.89971ZM3.0483 3.03353L4.54208 4.36343L4.54501 4.36013L3.0483 3.03353ZM3.92992 2.97521L5.23364 1.45854L5.23345 1.45838L3.92992 2.97521ZM14.0651 11.6873L12.7614 13.204L12.7614 13.204L14.0651 11.6873ZM15.9739 11.6873L17.2776 13.204L17.2777 13.2039L15.9739 11.6873ZM26.1084 2.97521L27.4122 4.49185L27.4138 4.49049L26.1084 2.97521ZM26.9901 3.03353L25.4952 4.36216L25.4963 4.36343L26.9901 3.03353ZM26.9307 3.89971L28.2345 5.41634L28.2345 5.41632L26.9307 3.89971ZM16.7962 12.6118L18.0993 14.129L18.0999 14.1284L16.7962 12.6118ZM15.0192 11.265C14.8365 11.265 14.671 11.2032 14.5453 11.0952L11.9391 14.1296C12.8268 14.8921 13.9297 15.265 15.0192 15.265V11.265ZM14.546 11.0958L4.41148 2.38311L1.80384 5.4163L11.9384 14.129L14.546 11.0958ZM4.41145 2.38309C4.99507 2.88482 5.06258 3.77879 4.54208 4.36343L1.55452 1.70363C0.580402 2.79779 0.70039 4.4677 1.80386 5.41632L4.41145 2.38309ZM4.54501 4.36013C4.04026 4.9296 3.18722 4.97403 2.62638 4.49205L5.23345 1.45838C4.15401 0.530728 2.5112 0.624263 1.55159 1.70694L4.54501 4.36013ZM2.6262 4.49189L12.7614 13.204L15.3688 10.1706L5.23364 1.45854L2.6262 4.49189ZM12.7614 13.204C14.0553 14.3162 15.9837 14.3162 17.2776 13.204L14.6702 10.1706C14.8757 9.99399 15.1633 9.99399 15.3688 10.1706L12.7614 13.204ZM17.2777 13.2039L27.4122 4.49185L24.8047 1.45858L14.6701 10.1707L17.2777 13.2039ZM27.4138 4.49049C26.8496 4.97649 25.9972 4.92698 25.4952 4.36216L28.485 1.7049C27.5269 0.626888 25.8846 0.528264 24.8031 1.45993L27.4138 4.49049ZM25.4963 4.36343C24.9758 3.77879 25.0433 2.88482 25.6269 2.38309L28.2345 5.41632C29.338 4.4677 29.458 2.79779 28.4838 1.70363L25.4963 4.36343ZM25.6269 2.38307L15.4924 11.0952L18.0999 14.1284L28.2345 5.41634L25.6269 2.38307ZM15.493 11.0946C15.3667 11.2031 15.1998 11.265 15.0192 11.265V15.265C16.1082 15.265 17.2121 14.891 18.0993 14.129L15.493 11.0946Z" fill="white" mask="url(#path-3-inside-2_740_38)"/>
</svg>
