<svg width="51" height="51" viewBox="0 0 51 51" fill="none" xmlns="http://www.w3.org/2000/svg">
<g clip-path="url(#clip0_490_459)">
<path d="M25.8474 31.4534C28.806 31.4534 31.2045 29.0709 31.2045 26.132C31.2045 23.193 28.806 20.8105 25.8474 20.8105C22.8887 20.8105 20.4902 23.193 20.4902 26.132C20.4902 29.0709 22.8887 31.4534 25.8474 31.4534Z" stroke="#151E09" stroke-width="2" stroke-linecap="round" stroke-linejoin="round"/>
<path d="M48.5974 19.275C47.8379 16.9651 46.1928 15.0509 44.0233 13.9528C41.8538 12.8546 39.3372 12.6622 37.026 13.4178C36.201 13.6516 35.4177 14.0131 34.7046 14.4893C34.9354 13.6636 35.0555 12.8109 35.0617 11.9535C35.0617 9.50976 34.0909 7.16607 32.3629 5.43806C30.6349 3.71005 28.2912 2.73926 25.8474 2.73926C23.4037 2.73926 21.06 3.71005 19.332 5.43806C17.6039 7.16607 16.6332 9.50976 16.6332 11.9535C16.6394 12.8109 16.7595 13.6636 16.9903 14.4893C16.2794 14.0006 15.496 13.627 14.6689 13.3821C13.5268 13.0093 12.3226 12.865 11.1248 12.9575C9.92698 13.0501 8.75915 13.3777 7.68796 13.9216C6.61677 14.4654 5.6632 15.215 4.88168 16.1274C4.10017 17.0398 3.50602 18.0972 3.13316 19.2393C2.7603 20.3813 2.61603 21.5856 2.70859 22.7834C2.80115 23.9812 3.12872 25.149 3.67261 26.2202C4.21649 27.2914 4.96604 28.2449 5.87845 29.0264C6.79086 29.808 7.84827 30.4021 8.9903 30.775C9.82681 31.022 10.6903 31.1659 11.5617 31.2035C10.8961 31.7374 10.2966 32.3489 9.77602 33.025C9.06496 33.993 8.55323 35.0926 8.27052 36.26C7.9878 37.4274 7.93974 38.6393 8.12912 39.8254C8.3185 41.0115 8.74155 42.1482 9.37372 43.1696C10.0059 44.1909 10.8346 45.0765 11.8117 45.775C13.7863 47.2019 16.2441 47.7922 18.6514 47.4178C21.0587 47.0433 23.221 45.7343 24.6689 43.775C25.1713 43.0747 25.5684 42.3046 25.8474 41.4893C26.1376 42.3067 26.5468 43.0769 27.0617 43.775C28.5096 45.7343 30.6719 47.0433 33.0792 47.4178C35.4865 47.7922 37.9443 47.2019 39.9189 45.775C40.896 45.0765 41.7247 44.1909 42.3569 43.1696C42.9891 42.1482 43.4121 41.0115 43.6015 39.8254C43.7909 38.6393 43.7428 37.4274 43.4601 36.26C43.1774 35.0926 42.6656 33.993 41.9546 33.025C41.434 32.3489 40.8345 31.7374 40.1689 31.2035C41.0283 31.163 41.8796 31.0191 42.7046 30.775C43.8489 30.4102 44.9098 29.8228 45.8261 29.0464C46.7424 28.27 47.4962 27.32 48.0439 26.2511C48.5916 25.1823 48.9225 24.0156 49.0175 22.8183C49.1125 21.6211 48.9697 20.4168 48.5974 19.275V19.275Z" stroke="#858666" stroke-width="2" stroke-linecap="round" stroke-linejoin="round"/>
</g>
<defs>
<clipPath id="clip0_490_459">
<rect width="50" height="50" fill="white" transform="translate(0.847412 0.203125)"/>
</clipPath>
</defs>
</svg>
